HIERARCHY
ROOT Hips
{
  OFFSET 0 0 0
  CHANNELS 6 Xposition Yposition Zposition Zrotation Xrotation Yrotation
  JOINT Spine
  {
    OFFSET 0 8.14573 0
    CHANNELS 3 Zrotation Xrotation Yrotation
    JOINT Spine1
    {
      OFFSET 0 24.111 0
      CHANNELS 3 Zrotation Xrotation Yrotation
      JOINT Neck
      {
        OFFSET 0 24.012 2.18291
        CHANNELS 3 Zrotation Xrotation Yrotation
        JOINT Head
        {
          OFFSET 0 13.9074 -1.98676
          CHANNELS 3 Zrotation Xrotation Yrotation
          End Site
          {
            OFFSET 0 19.8676 0
          }
        }
      }
      JOINT LeftShoulder
      {
        OFFSET 3.98182 23.2766 -0.033966
        CHANNELS 3 Zrotation Xrotation Yrotation
        JOINT LeftArm
        {
          OFFSET 8.45088 0 0
          CHANNELS 3 Zrotation Xrotation Yrotation
          JOINT LeftForeArm
          {
            OFFSET 36.5975 0 0
            CHANNELS 3 Zrotation Xrotation Yrotation
            JOINT LeftHand
            {
              OFFSET 28.1209 0 0
              CHANNELS 3 Zrotation Xrotation Yrotation
              End Site
              {
                OFFSET 14.9007 0 0
              }
            }
          }
        }
      }
      JOINT RightShoulder
      {
        OFFSET -3.9644 23.2766 -0.033966
        CHANNELS 3 Zrotation Xrotation Yrotation
        JOINT RightArm
        {
          OFFSET -8.45088 0 0
          CHANNELS 3 Zrotation Xrotation Yrotation
          JOINT RightForeArm
          {
            OFFSET -36.5975 0 0
            CHANNELS 3 Zrotation Xrotation Yrotation
            JOINT RightHand
            {
              OFFSET -28.1209 0 0
              CHANNELS 3 Zrotation Xrotation Yrotation
              End Site
              {
                OFFSET -14.9007 0 0
              }
            }
          }
        }
      }
    }
  }
  JOINT LeftUpLeg
  {
    OFFSET 9.93382 0 0
    CHANNELS 3 Zrotation Xrotation Yrotation
    JOINT LeftLeg
    {
      OFFSET 0 -42.7024 0
      CHANNELS 3 Zrotation Xrotation Yrotation
      JOINT LeftFoot
      {
        OFFSET 0 -37.602 0
        CHANNELS 3 Zrotation Xrotation Yrotation
        JOINT LeftToeBase
        {
          OFFSET 0 -6.45698 14.9007
          CHANNELS 3 Zrotation Xrotation Yrotation
          End Site
          {
            OFFSET 0 0 3.97353
          }
        }
      }
    }
  }
  JOINT RightUpLeg
  {
    OFFSET -9.93382 0 0
    CHANNELS 3 Zrotation Xrotation Yrotation
    JOINT RightLeg
    {
      OFFSET 0 -42.7024 0
      CHANNELS 3 Zrotation Xrotation Yrotation
      JOINT RightFoot
      {
        OFFSET 0 -37.602 0
        CHANNELS 3 Zrotation Xrotation Yrotation
        JOINT RightToeBase
        {
          OFFSET 0 -6.45698 14.9007
          CHANNELS 3 Zrotation Xrotation Yrotation
          End Site
          {
            OFFSET 0 0 3.97353
          }
        }
      }
    }
  }
}
MOTION
Frames:	12
Frame Time:	0.0166667
47.1231 86.6414 32.8991 4.43888 -2.79398 8.64503 -1.11085 0.794882 1.05722 -4.88593 -3.76561 0.187327 4.66937 16.5769 -2.82579 4.52217 14.1378 -2.84288 -1.56898 9.59333 -5.23769 -29.8788 44.2732 -28.2039 11.6995 -21.0177 -61.6337 4.91659 -14.2198 2.94934 -12.8128 -5.17797 2.58432 24.1477 -13.2964 8.54603 -31.6457 -33.9352 89.0044 -36.0013 -1.78545 -4.75109 -3.29797 21.0732 1.98927 -2.0066 13.739 -6.56712 5.41587 -20.88 14.5761 -3.97569e-016 0 -3.18055e-015 -8.9086 -24.9346 -10.2382 2.34508 12.4163 2.2628 2.80244 5.40122 -13.3147 0 0 -1.59028e-015 
46.8984 86.4449 35.2406 4.31303 -3.42232 8.80597 -0.762403 0.893917 0.950656 -4.83834 -3.3773 0.170317 4.44229 16.5784 -2.6633 4.13667 14.3911 -2.691 -1.96128 10.0442 -4.67377 -30.6869 44.4333 -27.25 11.3006 -19.8886 -59.9093 4.63838 -13.519 2.83226 -12.8992 -5.13354 2.60614 24.2577 -13.4184 8.64997 -31.4145 -33.8085 89.9202 -36.4591 -1.37445 -4.59981 -2.77219 20.9978 2.12417 -1.15834 18.0458 -7.62647 4.2973 -20.9964 14.9424 -7.95139e-016 -1.59028e-015 -3.18055e-015 -8.41365 -24.6451 -10.1386 2.10138 14.7805 5.01512 3.43028 6.36508 -14.7435 5.96354e-016 1.59028e-015 1.59028e-015 
46.6251 86.3908 37.546 4.00557 -3.9828 8.99616 -0.265973 0.919694 0.773028 -4.77233 -2.95961 0.13172 4.2575 16.401 -2.44106 3.70304 15.0671 -2.49709 -2.41019 10.485 -4.11769 -31.8367 44.2304 -26.0295 10.5083 -18.2703 -57.728 4.45934 -12.5662 2.76156 -12.8695 -4.95032 2.64097 24.353 -13.4017 8.83401 -31.1343 -33.8635 90.8654 -36.8247 -1.17344 -4.60825 -2.00274 20.2378 2.15561 -0.242209 23.3319 -8.83343 3.30046 -20.2399 15.39 -0 -3.18055e-015 -0 -7.92267 -24.521 -9.4421 1.98904 18.1232 7.47582 4.72008 5.80505 -17.7221 -0 0 1.59028e-015 
46.2638 86.4776 39.8307 3.40517 -4.62045 9.1616 0.486319 1.06011 0.658753 -4.77534 -2.66632 0.107986 4.17519 16.5331 -2.3044 3.42947 15.3335 -2.36079 -2.67184 10.9475 -3.90119 -33.4805 43.8738 -24.4104 9.70286 -16.3403 -55.0282 3.87839 -11.3351 2.60503 -12.6441 -4.87931 2.78775 24.3789 -13.3703 8.67946 -30.5942 -33.7688 92.0241 -37.3092 -1.01213 -4.49088 -0.617825 18.7482 1.84255 0.0450339 29.6579 -9.57012 2.65809 -18.2525 16.0196 1.59028e-015 -3.18055e-015 4.77083e-015 -6.98925 -23.8109 -8.49577 2.1891 20.5191 6.53567 6.04547 4.51019 -18.8501 -1.19271e-015 -1.59028e-015 -3.18055e-015 
45.836 86.6551 42.0781 2.61025 -5.49959 9.21856 1.33086 1.59422 0.715672 -4.63986 -2.64942 0.135428 4.18203 16.829 -2.25984 3.16776 15.473 -2.30878 -2.97353 11.2982 -3.76331 -35.1191 43.8169 -22.8018 9.1979 -14.2593 -51.6861 2.33476 -9.84442 2.44047 -12.3213 -4.57852 2.8426 24.3343 -13.2872 8.56616 -30.5155 -33.8687 92.823 -37.0417 -0.775933 -4.39608 1.39634 16.7151 2.14019 -0.152407 36.8023 -10.9668 2.00928 -15.2316 16.7546 -1.59028e-015 -6.36111e-015 -0 -5.73386 -22.3308 -7.77051 2.78449 21.9922 4.13508 4.87295 3.5569 -16.4931 1.04362e-015 -3.97569e-016 -1.59028e-015 
45.3602 86.8469 44.2109 1.77377 -6.37795 9.2816 2.07454 2.3808 0.834959 -4.31536 -2.94306 0.179731 4.0715 17.2643 -2.27527 3.06384 15.4485 -2.3086 -3.34395 11.4867 -3.62922 -36.7012 43.9903 -21.2147 8.51725 -12.1671 -48.0048 1.14621 -8.40402 2.51655 -11.9832 -4.29491 2.94408 24.0679 -13.0571 8.34216 -30.4823 -33.9896 93.3588 -37.4983 -0.61123 -4.382 3.68831 14.0961 2.22356 -1.21686 44.4922 -11.1907 2.02113 -11.756 16.9608 3.18055e-015 -6.36111e-015 -0 -4.34452 -20.7221 -8.01093 2.83741 22.9381 3.33385 3.68473 2.83139 -14.8427 3.23025e-016 1.98785e-016 -0 
44.8805 87.0271 46.2594 0.996907 -7.10538 9.21552 2.69765 3.09608 1.05779 -4.04651 -3.2517 0.259808 4.00673 17.5456 -2.33851 3.01106 15.4795 -2.3656 -3.47832 11.5867 -3.38541 -38.3345 44.2462 -19.731 7.70099 -10.1125 -44.2771 0.108994 -7.00713 3.08523 -11.7258 -4.19615 3.12621 23.8487 -12.9758 7.96254 -30.2816 -33.9451 93.9174 -37.4874 -0.447637 -4.40381 5.84176 11.1767 2.93226 -2.0193 52.027 -12.3246 2.82165 -8.02584 17.7869 -0 0 4.77083e-015 -2.88991 -19.0732 -8.10869 2.73207 23.3914 3.82239 2.63743 2.03698 -14.9206 1.15544e-015 0 -1.59028e-015 
44.48 87.2074 48.136 0.495408 -7.44772 9.09467 3.12088 3.59791 1.39877 -3.95995 -3.50769 0.375509 4.05435 17.5861 -2.35641 2.78648 15.3648 -2.38077 -3.50693 11.5281 -3.13155 -39.7841 44.8876 -18.316 6.94804 -8.36367 -40.587 -1.54676 -5.86196 3.75993 -11.6078 -4.31568 3.1987 23.6809 -12.679 7.62436 -30.2652 -34.1487 94.1174 -37.4002 -0.547177 -4.53226 7.51394 7.95593 3.68984 -3.03058 58.7925 -11.7905 3.82106 -4.51855 17.4008 -0 0 4.77083e-015 -1.79416 -17.6496 -7.86292 2.72438 23.583 4.98949 2.0852 0.643625 -15.8704 1.98785e-016 9.93923e-017 3.18055e-015 
44.0968 87.368 49.8791 0.098676 -7.42859 9.02039 3.33657 3.76565 1.70282 -3.8444 -3.67421 0.478591 4.2024 17.5269 -2.41623 2.38762 15.3374 -2.44619 -3.43082 11.5398 -3.1027 -41.5735 45.0561 -16.586 6.13223 -6.55859 -37.0007 -3.09945 -4.63546 4.46984 -11.4766 -4.19622 3.2762 23.4591 -12.9401 7.58009 -29.8969 -33.9857 94.3666 -37.6374 -0.596606 -4.67782 8.9976 4.44799 4.67976 -3.86748 64.7551 -11.0413 3.86582 -1.59818 16.6767 -1.59028e-015 -6.36111e-015 -0 -0.881663 -16.492 -8.00617 2.51259 23.6551 7.06143 1.74363 -1.23276 -17.5045 1.21756e-015 1.98785e-016 3.18055e-015 
43.7515 87.5913 51.5655 -0.168338 -7.21113 8.6574 3.35613 3.65585 2.21502 -3.66647 -3.50619 0.659651 4.09292 16.9815 -2.42094 2.2567 15.7463 -2.48317 -3.49778 11.3705 -2.89208 -43.1433 45.2778 -14.9851 4.9588 -5.36131 -33.3958 -4.00157 -4.04964 4.91457 -11.7065 -4.34233 3.19986 23.5985 -13.238 7.68201 -29.7633 -33.8271 94.4517 -37.884 -0.427764 -4.91392 10.1146 1.09703 6.02098 -4.7102 69.4003 -8.64513 2.86734 0.673627 14.8901 -3.18055e-015 3.18055e-015 -1.59028e-015 -0.078196 -15.3421 -7.46029 2.53505 23.181 7.78993 1.14219 -2.5731 -18.179 4.47266e-016 0 1.59028e-015 
43.4329 87.8625 53.165 -0.48016 -7.01821 8.22524 3.50962 3.64331 2.691 -3.66103 -3.32414 0.82579 3.97661 16.3918 -2.35533 2.22786 16.0792 -2.44479 -3.50633 11.3027 -2.65792 -44.8223 45.2138 -13.2108 3.68156 -4.77873 -30.0598 -4.36648 -3.9935 5.2633 -11.7549 -4.27313 3.09621 23.6862 -13.5721 8.0907 -29.847 -33.8815 94.2525 -37.9729 -0.463337 -5.04527 11.0289 -2.09248 7.28495 -5.90834 72.938 -5.27457 2.69963 1.66335 14.4182 3.18055e-015 -6.36111e-015 -2.38542e-015 0.810349 -14.0036 -6.92722 2.48036 22.2145 7.17553 0.868741 -3.58401 -17.6171 7.95139e-016 0 -3.18055e-015 
43.1709 88.1951 54.697 -0.739543 -6.75709 7.66981 3.66048 3.60444 3.26061 -3.72109 -3.178 1.01983 3.76416 15.9624 -2.31488 2.27742 16.2833 -2.42241 -3.61075 11.3551 -2.4545 -46.4018 44.8491 -11.4189 2.31117 -4.43472 -26.8245 -4.63659 -4.10357 5.39579 -11.9579 -4.52561 3.15326 23.9309 -13.7994 8.18734 -29.5035 -33.7802 94.3941 -37.6694 -0.63516 -5.23391 11.6218 -5.08502 8.43093 -7.37206 75.5457 -1.70508 2.17105 0.488759 14.4165 3.18055e-015 3.18055e-015 7.95139e-016 1.46818 -12.593 -6.2343 2.86225 20.8196 5.44142 0.606318 -4.09571 -16.4478 -7.45443e-016 3.97569e-016 3.18055e-015 
